<svg width="189" height="48" viewBox="0 0 189 48" fill="none" xmlns="http://www.w3.org/2000/svg">
<g clip-path="url(#clip0_3061_346)">
<path d="M12.609 3.19104L12.9539 3.05043L13.496 2.0112C13.7916 1.44269 14.0319 0.94753 14.0319 0.923077C14.0319 0.861947 11.9622 0 11.8328 0C11.7774 0 11.3709 0.165054 10.9212 0.360672C6.92353 2.10291 3.73896 4.36475 1.98958 6.70607C1.23811 7.7086 0.942439 8.36272 0.579016 9.77484C0.184792 11.3459 0.0677571 12.2201 0.0246389 13.9012L0 14.8609L0.0677571 14.3535C0.283347 12.6663 1.13955 11.1319 2.80267 9.40195C5.02633 7.09119 8.70371 4.76209 12.609 3.19104Z" fill="white"/>
<path d="M24.2081 4.08944C24.128 4.08944 23.7215 4.13223 23.2965 4.18727C22.8714 4.23617 22.0953 4.35231 21.5779 4.44402C15.5475 5.50768 9.41858 8.22189 5.17452 11.7125C4.47848 12.281 3.2342 13.5158 2.74759 14.121C1.73123 15.3742 1.05982 16.6763 0.838068 17.8072C0.739513 18.3269 0.751831 19.1521 0.862706 19.6228C1.0475 20.3808 1.89754 22.2881 2.4704 23.2295C2.79686 23.7614 3.63459 24.9778 3.68386 24.9778C3.70233 24.9778 3.62227 24.7945 3.50522 24.5623C3.02477 23.633 2.98165 22.6427 3.36355 21.4629C3.79474 20.1424 4.68174 18.8342 6.09231 17.4343C7.86633 15.6738 10.1454 14.0966 12.9604 12.6845C16.5146 10.8994 20.1982 9.7135 23.968 9.14498L24.8364 9.01048L26.3271 7.72063C27.1463 7.00539 27.8115 6.41854 27.8115 6.41243C27.8115 6.40631 27.0292 5.87448 26.0684 5.2387C24.7872 4.3951 24.2943 4.08333 24.1958 4.08944H24.2081Z" fill="white"/>
<path d="M67.7207 27.5885H67.5543C67.462 27.5885 67.1046 27.6436 66.7535 27.7108C65.9404 27.8575 65.0411 27.8697 64.6469 27.7413C64.2096 27.6007 63.9323 27.3622 63.7229 26.9465C63.3965 26.3047 63.3965 26.262 63.3965 21.5915C63.3965 19.3175 63.4088 17.3796 63.4274 17.3001L63.458 17.1534H68.1827V12.3974H63.3904V8.5095C63.3904 4.83552 63.3904 4.62158 63.3103 4.62158C63.261 4.62158 63.1871 4.64603 63.1501 4.66437C63.0269 4.73772 60.8771 5.50186 59.5714 5.94201C58.8938 6.16818 58.284 6.38826 58.2162 6.43104C57.9144 6.62056 57.6618 6.93232 57.5447 7.26242C57.4646 7.47639 57.4646 27.026 57.5447 27.7901C57.7789 30.1437 58.9308 31.5864 61.1667 32.3323C62.0599 32.6256 62.6942 32.7235 64.0063 32.7478C65.2383 32.7784 65.8912 32.7296 66.9014 32.5402C67.5112 32.4301 68.8047 32.1121 68.854 32.0633C68.8664 32.051 68.62 31.0424 68.2996 29.8198L67.7268 27.5946L67.7207 27.5885Z" fill="white"/>
<path d="M99.627 9.98261C100.138 9.48133 100.822 9.34072 102.085 9.48133C102.504 9.53634 102.947 9.57302 103.064 9.57913H103.28L103.736 7.56182C103.982 6.45535 104.179 5.5017 104.173 5.44669C104.161 5.36722 104.062 5.32443 103.557 5.19605C102.448 4.90873 101.9 4.83538 100.705 4.82316C100.107 4.81093 99.4668 4.82316 99.2759 4.84761C98.0501 5.00653 97.1755 5.25106 96.3499 5.66676C94.6745 6.50425 93.7382 7.80635 93.3132 9.87867C93.2332 10.2699 93.2269 11.0096 93.2147 21.2367L93.2024 32.1731H99.1035V17.141H103.748V12.3851H99.1527L99.1219 12.2628C99.1096 12.1955 99.1035 11.8471 99.1096 11.4803C99.1403 10.6428 99.2328 10.3738 99.627 9.97649V9.98261Z" fill="white"/>
<path d="M50.5899 20.7905C49.9 20.5581 49.0191 20.3381 47.3253 19.9958C44.8306 19.4945 43.7402 19.2133 43.2044 18.926C42.921 18.7793 42.6376 18.3941 42.6008 18.1068C42.5699 17.8623 42.7424 17.4772 42.995 17.2143C43.4631 16.7436 44.4979 16.5235 45.97 16.5785C47.7503 16.6458 49.2471 17.1471 50.5652 18.1252C50.7623 18.2719 50.9348 18.3758 50.9595 18.3575C50.9841 18.3452 51.6247 17.6361 52.3947 16.7864C53.1585 15.9367 53.8545 15.1603 53.9469 15.0564L54.1132 14.8669L53.756 14.5368C52.5794 13.4425 50.7378 12.5561 48.8405 12.1649C47.5531 11.902 46.9987 11.8409 45.5575 11.8287C44.812 11.8165 44.1405 11.8287 44.0543 11.8287C43.9744 11.8409 43.7341 11.8715 43.5246 11.902C42.9271 11.9815 42.0957 12.171 41.5043 12.3789C38.831 13.2836 37.3835 14.714 36.9153 16.8903C36.7612 17.6178 36.7612 18.9015 36.9153 19.6289C37.3279 21.5606 38.369 22.7344 40.3585 23.5169C41.4489 23.9387 43.8451 24.5805 46.0379 25.0268C46.7586 25.1736 47.4607 25.3264 47.6085 25.363C47.9904 25.4671 48.2922 25.6687 48.4586 25.9437C48.5879 26.1516 48.6065 26.2188 48.6065 26.5368C48.6065 26.8179 48.5756 26.9525 48.5017 27.0993C48.1136 27.8267 46.8941 28.175 44.9291 28.1139C43.2228 28.0589 42.3975 27.7961 40.1246 26.5795C39.4408 26.2127 38.8556 25.9194 38.831 25.9255C38.7509 25.9437 35.6155 29.245 35.6155 29.2998C35.6155 29.3733 36.4533 30.1007 36.8906 30.4185C38.5907 31.6473 40.5741 32.3932 42.995 32.711C44.4178 32.8943 46.1302 32.9188 47.3622 32.766C50.5345 32.3748 52.9245 30.8954 53.8484 28.7497C54.5074 27.2337 54.526 25.1552 53.8976 23.6576C53.3432 22.3492 52.1913 21.3406 50.5776 20.7781L50.5899 20.7905Z" fill="white"/>
<path d="M88.6263 17.1653C87.1849 14.1822 84.8811 12.5194 81.5302 12.0242C80.9327 11.9387 79.0665 11.8959 78.5121 11.957C77.9268 12.0242 77.1569 12.1893 76.5963 12.3727C75.9249 12.5866 74.8469 13.1246 74.2803 13.5281C72.4199 14.8546 70.9108 17.1226 70.3381 19.4517C70.1039 20.4237 70.0424 20.9617 70.0485 22.2087C70.0485 23.7858 70.2396 25.0268 70.6769 26.3594C71.3481 28.3889 72.6294 30.0456 74.3543 31.1032C76.4116 32.3686 79.0417 32.9738 81.5118 32.7475C83.2488 32.5826 85.1398 32.0264 86.4088 31.305C87.2958 30.8036 88.1582 30.0823 88.8233 29.2876C89.1006 28.9636 89.1376 28.8964 89.082 28.8352C89.0452 28.8047 88.1704 28.1323 87.1295 27.3498L85.2446 25.9315L84.7333 26.4205C83.8894 27.2336 83.0518 27.7226 82.0846 27.9795C81.6843 28.0833 81.4994 28.1017 80.9082 28.1078C80.1258 28.1078 79.664 28.0406 78.9185 27.7961C78.1177 27.5392 77.5758 27.1786 77.1568 26.659C76.7379 26.1394 76.3254 25.1612 76.1774 24.3483L76.1343 24.1036H89.7966L89.8275 23.9202C89.8706 23.6452 89.8583 22.4226 89.8089 21.7013C89.6795 20.014 89.3039 18.5469 88.6263 17.1653ZM79.9719 20.2646C76.4239 20.2646 76.2205 20.2646 76.2391 20.1792C76.6086 18.3513 77.4895 17.2142 78.8754 16.7619C79.479 16.5663 80.2181 16.5296 80.8034 16.6641C80.9266 16.6946 81.2531 16.8291 81.5364 16.9575C81.9923 17.1715 82.0908 17.2448 82.5035 17.6605C83.2118 18.3635 83.5567 19.0604 83.6861 20.0019L83.7169 20.2585H79.9658L79.9719 20.2646Z" fill="white"/>
<path d="M122.549 17.9114C122.234 16.108 121.36 14.6165 120.054 13.6689C118.957 12.8681 117.331 12.2812 115.508 12.0306C114.966 11.9573 113.537 11.9022 113.161 11.9389C111.929 12.0612 111.19 12.1957 110.438 12.4157C108.443 13.0087 107.02 13.834 105.948 15.0199L105.622 15.3867L105.88 15.6251C106.028 15.7596 106.823 16.5115 107.654 17.294L109.157 18.7183L109.564 18.3577C110.525 17.4957 111.516 17.025 112.699 16.8477C113.204 16.7744 114.22 16.8172 114.615 16.9272C115.964 17.294 116.765 18.3516 116.771 19.7637V20.1977L114.726 20.2282C113.598 20.2466 112.44 20.2833 112.145 20.3078C109.12 20.5889 107.174 21.3775 106.016 22.8018C104.5 24.6603 104.359 27.7595 105.695 29.8991C105.997 30.376 106.626 31.0545 107.081 31.3969C108.153 32.1916 110.186 32.7968 111.812 32.7907C113.623 32.7907 115.409 31.9898 116.684 30.6327L116.955 30.3394V32.1671H122.764L122.746 25.6934C122.721 19.2196 122.715 18.8773 122.549 17.9053V17.9114ZM116.783 25.5345C116.629 26.2925 116.333 26.8305 115.773 27.3928C115.311 27.8575 114.781 28.1937 114.208 28.3892C113.401 28.6705 112.397 28.6094 111.566 28.2364C110.777 27.8818 110.395 27.1972 110.432 26.1947C110.445 25.779 110.469 25.6689 110.586 25.4428C110.66 25.296 110.789 25.1066 110.87 25.021C111.085 24.7947 111.584 24.5135 112.071 24.3362C112.533 24.1713 113.186 24.0978 115.378 23.9879C116.068 23.9573 116.672 23.9205 116.715 23.9144C116.771 23.9144 116.808 23.9634 116.826 24.0612C116.881 24.3423 116.857 25.1615 116.777 25.5345H116.783Z" fill="white"/>
<path d="M142.308 32.1731H145.265L145.247 25.1248C145.228 17.4529 145.234 17.6729 144.951 16.5604C144.359 14.2496 142.653 12.6052 140.325 12.11C139.456 11.9205 138.372 11.8716 137.387 11.9633C135.674 12.1284 134.073 12.9475 132.964 14.2252L132.681 14.5553V12.4401H127.02V32.2221H132.828V26.3963C132.828 20.0203 132.828 20.0387 133.112 19.2623C133.549 18.0764 134.547 17.1778 135.723 16.921C136.142 16.8232 136.838 16.8477 137.3 16.976C138.514 17.3061 139.124 18.0947 139.308 19.5924C139.339 19.8493 139.358 22.1844 139.358 26.0846V32.1731H142.308Z" fill="white"/>
<path d="M174.406 12.6666C173.205 12.0492 171.61 11.7985 169.953 11.9636C168.277 12.1225 166.959 12.7461 165.771 13.9381L165.198 14.5066V12.4404H159.488V32.2224H165.339L165.358 26.1581L165.37 20.1002L165.475 19.7089C165.857 18.2845 166.916 17.2209 168.222 16.9274C169.226 16.7074 170.55 17.0742 171.117 17.7344C171.493 18.1684 171.727 18.8042 171.825 19.6539C171.856 19.9534 171.875 22.2825 171.875 26.1521V32.1797H177.776V25.6815C177.776 19.5133 177.751 18.2295 177.628 17.3859C177.32 15.2586 176.156 13.5652 174.413 12.6727L174.406 12.6666Z" fill="white"/>
<path d="M155.275 22.3065V12.4399H152.373H149.466V22.3065V32.1729H152.373H155.275V22.3065Z" fill="white"/>
<path d="M187.792 32.1729V22.3065V12.4399H184.891H181.984V22.3065V32.1729H184.891H187.792Z" fill="white"/>
<path d="M22.5014 13.9072C15.8428 15.466 9.62143 19.0666 7.12672 22.8201C6.70788 23.4498 6.31365 24.2871 6.16581 24.8557C6.01182 25.4487 5.98717 26.2557 6.11037 26.7692C6.23357 27.2764 6.54156 27.8084 6.96043 28.2484C7.68726 29.0187 9.62143 30.1435 11.4632 30.871C12.1038 31.1278 13.3481 31.5251 13.3789 31.4885C13.3912 31.4762 13.2002 31.3968 12.9538 31.3173C10.6809 30.5226 9.84933 29.0066 10.6439 27.0564C10.9766 26.2251 11.5925 25.3692 12.5042 24.4705C14.5123 22.4715 17.5552 20.7355 21.0663 19.574C21.91 19.2928 23.2407 18.9321 24.0783 18.7549C24.1645 18.7365 27.0472 15.8756 27.0472 15.8083C27.0472 15.7533 23.1912 13.7849 23.0989 13.791C23.0435 13.791 22.7787 13.846 22.5014 13.9133V13.9072Z" fill="white"/>
<path d="M22.5016 23.2115C19.7913 24.0612 17.4383 25.3999 15.9477 26.9467C15.227 27.6923 14.765 28.4382 14.6172 29.1045C14.5186 29.5385 14.5741 30.1376 14.7404 30.4738C15.4734 31.9655 18.2576 32.4667 21.7686 31.7331C22.0397 31.6781 22.2615 31.6109 22.2615 31.5864C22.2615 31.568 22.2245 31.5498 22.1691 31.5498C21.9903 31.5498 21.2142 31.3052 20.8754 31.1401C20.2348 30.8284 19.8222 30.3088 19.8283 29.8319C19.8406 28.8539 21.664 27.4784 23.6103 26.9709L24.0231 26.8671L25.0025 25.6444C25.5383 24.9781 25.982 24.4158 25.982 24.3974C25.982 24.3668 23.2654 23.1443 23.056 23.0708C23.0314 23.0708 22.7789 23.1259 22.5016 23.2175V23.2115Z" fill="white"/>
<path d="M132.632 42.2111V43.3664H135.823V45.7627L135.471 46.0072C135.034 46.3128 134.646 46.4962 134.153 46.6429C133.815 46.7407 133.667 46.753 132.946 46.747C132.262 46.747 132.059 46.7285 131.739 46.6429C130.316 46.2517 129.342 45.2002 129.022 43.6902C128.93 43.2747 128.93 42.327 129.022 41.8686C129.299 40.4688 130.199 39.3256 131.394 38.8793C132.225 38.5676 133.353 38.5309 134.203 38.7815C134.745 38.9465 135.379 39.2645 135.773 39.5762L136.069 39.8085L136.42 39.3989C136.611 39.1728 136.777 38.9649 136.79 38.9283C136.82 38.806 135.983 38.1763 135.41 37.8952C134.498 37.4428 133.272 37.2655 132.084 37.4122C131.283 37.5161 130.371 37.8585 129.761 38.2986C128.844 38.9467 128.104 40.0225 127.821 41.1412C127.458 42.5655 127.606 44.1365 128.209 45.3593C128.782 46.5146 129.608 47.2421 130.839 47.6823C131.56 47.9389 131.942 48.0001 133.008 47.994C133.895 47.994 134.012 47.9816 134.443 47.8717C135.311 47.6394 136.05 47.2299 136.685 46.6308L137.054 46.2822V42.2171H132.65L132.632 42.2111Z" fill="white"/>
<path d="M162.118 39.0871C161.41 38.2313 160.443 37.6933 159.248 37.4854C158.681 37.3877 157.536 37.3877 157.006 37.4854C156.495 37.5771 155.959 37.7605 155.521 37.9868C154.339 38.6165 153.415 39.8145 153.076 41.1411C152.38 43.8614 153.55 46.6246 155.817 47.5903C156.618 47.9389 156.963 47.9939 158.139 47.9939C159.076 47.9939 159.223 47.9816 159.612 47.8777C161.607 47.3521 162.882 45.946 163.301 43.8126C163.424 43.1951 163.412 42.0885 163.283 41.4896C163.086 40.5604 162.716 39.7963 162.131 39.081L162.118 39.0871ZM161.983 43.5497C161.718 45.0536 160.745 46.2271 159.427 46.6307C158.737 46.8386 157.69 46.8507 156.944 46.6613C155.737 46.3556 154.795 45.3835 154.369 44.0081C154.246 43.6169 154.24 43.5252 154.24 42.7182C154.24 41.9114 154.253 41.8258 154.376 41.4222C154.554 40.8294 154.745 40.4563 155.084 40.0163C155.638 39.2889 156.334 38.867 157.302 38.6837C157.807 38.5859 158.712 38.6225 159.223 38.7509C160.542 39.0994 161.552 40.1141 161.909 41.4712C162.057 42.0153 162.094 42.9627 161.989 43.5497H161.983Z" fill="white"/>
<path d="M146.677 44.0449C148.019 43.8799 148.888 43.2257 149.294 42.0643C149.418 41.7158 149.442 41.5691 149.461 41.0556C149.492 39.9308 149.233 39.2278 148.506 38.5125C148.044 38.0541 147.717 37.8646 147.065 37.6873C146.701 37.5896 146.584 37.5833 143.966 37.5651L141.244 37.5527V47.8349H142.599V44.1856H145.063L146.652 46.0133L148.241 47.8349H149.079C149.535 47.8349 149.911 47.8228 149.904 47.8044C149.904 47.7861 149.153 46.9425 148.235 45.9216C146.837 44.3629 146.59 44.0754 146.683 44.057L146.677 44.0449ZM146.418 42.9262C146.245 42.9568 145.321 42.9812 144.354 42.9812H142.599V38.757H144.416C145.894 38.757 146.295 38.7694 146.566 38.8366C147.613 39.0687 148.321 40.1937 148.118 41.2818C147.952 42.1743 147.317 42.7918 146.418 42.9323V42.9262Z" fill="white"/>
<path d="M174.389 37.5527V40.756C174.389 42.5228 174.365 44.106 174.34 44.2772C174.149 45.5854 173.324 46.5023 172.104 46.7468C171.642 46.8447 171.353 46.8447 170.872 46.7468C170.299 46.6369 169.837 46.3924 169.406 45.9582C169.012 45.567 168.833 45.2553 168.661 44.6806C168.568 44.3566 168.562 44.1916 168.544 40.9699L168.531 37.6017H167.226L167.244 41.0679C167.263 44.8701 167.256 44.8213 167.564 45.6038C167.989 46.6919 168.993 47.5416 170.256 47.89C170.589 47.9817 170.761 47.994 171.513 47.994C172.32 47.994 172.412 47.9817 172.812 47.8655C174.241 47.4315 175.165 46.4962 175.547 45.1024L175.671 44.644L175.689 41.0985L175.701 37.5588H174.389V37.5527Z" fill="white"/>
<path d="M188.076 39.3928C187.577 38.3597 186.696 37.7545 185.47 37.6078C185.236 37.5772 184.054 37.5527 182.631 37.5527H180.198V47.8288H181.504V44.5217L183.647 44.5094L185.785 44.4973L186.173 44.3689C187.269 44.0022 187.934 43.3053 188.335 42.1192C188.47 41.7097 188.489 41.5996 188.489 41.0861C188.489 40.4016 188.421 40.1142 188.076 39.3928ZM186.056 43.0179C185.544 43.2929 185.347 43.3174 183.333 43.3174H181.504V38.806H183.345C184.509 38.806 185.273 38.8242 185.433 38.8611C186.037 38.9833 186.641 39.4294 186.887 39.9247C187.46 41.08 187.078 42.486 186.056 43.0239V43.0179Z" fill="white"/>
</g>
<defs>
<clipPath id="clip0_3061_346">
<rect width="188.488" height="48" fill="white"/>
</clipPath>
</defs>
</svg>
